<svg width="532" height="279" viewBox="0 0 532 279" fill="none" xmlns="http://www.w3.org/2000/svg">
<path d="M265.74 111.034L71.9172 40.3452V25.1434L91.6795 31.9842V0.820499L530.252 144.478V234.168L461.083 207.565V185.522L477.045 190.843V172.601L265.74 92.0313V111.034Z" stroke="black"/>
<path d="M434.152 225.59L461.878 206.776L530.863 235.162L464.518 278.402L389.592 251.006L415.998 235.162L436.462 243.084L452.306 232.192L434.152 225.59Z" stroke="black"/>
<path d="M433.992 225.313V203.415L462.038 184.929V206.509L433.992 225.313Z" stroke="black"/>
<path d="M387.781 251.137V229.182L415.828 213.247V235.202L387.781 251.137Z" stroke="black"/>
<path d="M434.972 242.666V220.643L416.828 213.135V235.158L434.972 242.666Z" stroke="black"/>
<path d="M1.57008 81.9223L71.4505 40.969L265.67 111.505L191.827 157.697L1.57008 81.9223Z" stroke="black"/>
<path d="M36.7427 42.3993L71.7305 24.5753V40.749L0.764618 82.0082V62.8639L19.5788 52.6316V24.5753L36.7427 14.343V42.3993Z" fill="#C3BEBE" stroke="black"/>
<path d="M475.557 171.677L398.764 218.764" stroke="black"/>
<path d="M475.557 171.677L398.764 218.764" stroke="black"/>
<path d="M213.314 143.579L398.764 218.764" stroke="black"/>
<path d="M213.314 143.579L398.764 218.764" stroke="black"/>
</svg>
